<svg version="1.1" id="Layer_1" xmlns:x="ns_extend;" xmlns:i="ns_ai;" xmlns:graph="ns_graphs;" xmlns="http://www.w3.org/2000/svg" xmlns:xlink="http://www.w3.org/1999/xlink" x="0px" y="0px" viewBox="0 0 46.3 45" style="enable-background:new 0 0 46.3 45;" xml:space="preserve">
 <style type="text/css">
  .st0{fill:#C4242B;}
	.st1{fill:#FFFFFF;}
 </style>
 <metadata>
  <sfw xmlns="ns_sfw;">
   <slices>
   </slices>
   <sliceSourceBounds bottomLeftOrigin="true" height="45" width="46.3" x="152.2" y="-216.4">
   </sliceSourceBounds>
  </sfw>
 </metadata>
 <g>
  <path class="st0" d="M46.3,13.2l-2.6-4.4L39,11l-2.6-4.4l-4.7,2.2l-2.6-4.4l-4.7,2.2l-2.6-4.4l-4.7,2.2L14.6,0L9.9,2.2L0,34l12,3.6
		c0.8-2.6,3.3-4.4,6.1-4.4c3.5,0,6.4,2.8,6.4,6.3l0,0.1c0,0.6,0,1.1-0.2,1.7L36.4,45L46.3,13.2">
  </path>
  <path class="st1" d="M22.8,13.3c-0.3,0-0.6-0.1-0.9-0.1H10.5c0,0,0,0,0,0c-0.7,0-1.3,0.6-1.3,1.3v15.6c0,0.6,0.4,1.2,1.1,1.3
		c0.4,0.1,0.9-0.1,1.2-0.4c0.3-0.2,0.4-0.6,0.4-0.9V15.8h5v14.3c0,0.6,0.4,1.2,1.1,1.3c0.1,0,0.2,0,0.2,0c0.7,0,1.3-0.6,1.3-1.3
		V15.8h2.5c0,0,0,0,0,0c1.4,0,2.5,1.1,2.5,2.5v11.8c0,0.6,0.4,1.2,1.1,1.3c0.4,0.1,0.9-0.1,1.2-0.4c0.3-0.2,0.4-0.6,0.4-0.9V18.3
		C27,15.8,25.2,13.7,22.8,13.3z">
  </path>
  <path class="st1" d="M39.5,13.1L39.5,13.1C38.7,13,38,13.4,37.9,14l-3.3,10.9L31.3,14c-0.2-0.7-0.9-1-1.6-0.9c0,0,0,0,0,0
		c-0.7,0.2-1.1,0.9-0.9,1.6l4.4,14.6l-1.4,4.5c-0.3,1-1.3,1.8-2.4,1.8c-0.3,0-0.7,0.1-0.9,0.4c-0.2,0.2-0.4,0.6-0.4,0.9
		c0,0.6,0.4,1.2,1.1,1.3v0c0.1,0,0.2,0,0.2,0c1.1,0,2.2-0.3,3.1-1c0.8-0.6,1.5-1.5,1.8-2.6l1.4-4.8l4.6-15
		C40.6,14.1,40.2,13.3,39.5,13.1z">
  </path>
 </g>
</svg>